<svg xmlns="http://www.w3.org/2000/svg" version="1.1" viewBox="-5.0 -10.0 110.0 135.0">
 <path d="m94.414 53.84h-5.4648c-0.20703 0-0.40625 0.082031-0.55078 0.22656-0.14453 0.14453-0.22656 0.34375-0.22656 0.55078v0.003906c0 0.20703 0.082031 0.40625 0.22656 0.55078 0.14453 0.14453 0.34375 0.22656 0.55078 0.22656h5.4648v7.0234h-7.0234v1.5625h-81.93v-12.484h2.3398c0.86328 0 1.5586-0.69922 1.5586-1.5586 0-0.86328-0.69922-1.5625-1.5625-1.5625h-2.3398v-12.484h81.93v1.5586h7.0234v16.387zm-67.105-16.387h-20.285v7.0234h0.78125c1.4492 0 2.8359 0.57422 3.8594 1.5977 1.0234 1.0234 1.5977 2.4141 1.5977 3.8594v0.003906c0 1.4492-0.57422 2.8359-1.5977 3.8594-0.44531 0.44531-0.96094 0.80859-1.5234 1.0742v7.5508h4.6836v-20.285h12.484zm-20.285 8.582v0.78125h0.78125c1.7227 0 3.1211 1.3984 3.1211 3.1211s-1.3984 3.1211-3.1211 3.1211h-0.78125v0.78125h0.78125c1.0352 0 2.0273-0.41016 2.7578-1.1406s1.1406-1.7227 1.1406-2.7578v-0.003906c0-1.0352-0.41016-2.0273-1.1406-2.7578-0.73047-0.73047-1.7227-1.1406-2.7578-1.1406h-0.78125zm0 9.3633v7.0234h1.5586v-7.0781c-0.25781 0.035156-0.51562 0.054688-0.77734 0.054688zm9.3633 7.0234h69.445v-4.6836h1.5625v3.1211h2.3398v-3.9023h-0.78125c-0.62109 0-1.2148-0.24609-1.6523-0.68359s-0.68359-1.0352-0.68359-1.6523v-0.003906c0-0.62109 0.24609-1.2148 0.68359-1.6523s1.0352-0.68359 1.6523-0.68359h0.78125v-13.266h-3.9023v-1.5586h-14.824v2.3398h8.5938c0.61719 0 1.2109 0.24609 1.6484 0.68359s0.68359 1.0312 0.68359 1.6484v15.625c0 0.61719-0.24609 1.2109-0.68359 1.6484s-1.0312 0.68359-1.6484 0.68359h-63.211v2.3398zm74.906-1.5586h1.5586v-1.1719h-1.5586zm1.5586-2.7305v-1.1719h-1.5586v1.1719zm-23.41-20.676h-40.574v4.6836h1.5586v1.5586h-14.047v14.824h60.863v-17.168h-9.3633v-1.5586h1.5586v-2.3398zm21.848 14.824h1.5586v-1.1719h-1.5586zm1.5586-2.7305v-1.5586h-1.5586v1.5586zm0-3.1211v-1.5625h-1.5586v1.5625zm0-3.1211v-1.5586h-1.5586v1.5586zm0-3.1211v-1.1719h-1.5586v1.1719zm-14.047 18.336h0.78906c0.20312 0 0.39844-0.082032 0.54297-0.22656 0.14453-0.14453 0.22656-0.33984 0.22656-0.54297v-15.625c0-0.20312-0.082031-0.39844-0.22656-0.54297-0.14453-0.14453-0.33984-0.22656-0.54297-0.22656h-0.78906v17.168zm8.582-13.266h-1.5625v-4.6836h1.5625zm-74.125 14.047h-1.5586v-3.9023h1.5586zm-4.6836-17.168v-1.5586h3.1211v1.5586zm67.105 14.824h-57.742v-11.703h57.742zm-1.5625-10.145h-54.617v8.582h54.617zm-1.5586 7.0234h-1.5586v-5.4609h1.5586zm-3.9023-5.4609v1.5625h-47.598v-1.5625z" fill-rule="evenodd"/>
</svg>