<?xml version="1.0" encoding="utf-8"?>
<svg xmlns="http://www.w3.org/2000/svg" version="1.1" viewBox="-5.0 -10.0 110.0 135.0" xmlns:bx="https://boxy-svg.com">
  <path d="m67.73 42.25h4v3h-4z"/>
  <path d="m48.395 42.25h4.332v3h-4.332z"/>
  <path d="m73.73 42.25h4v3h-4z"/>
  <path d="m54.73 42.25h4v3h-4z"/>
  <path d="m29.395 42.25h4.332v3h-4.332z"/>
  <path d="m35.73 42.25h4.332v3h-4.332z"/>
  <path d="m42.062 42.25h4.332v3h-4.332z"/>
  <path d="m91.562 16.594 2.4375-1.7812v-5.5625h-19.902l-4.9922 3.7969c-0.17578 0.13281-0.38672 0.20312-0.60547 0.20312h-37c-0.21875 0-0.42969-0.070312-0.60547-0.20312l-4.9922-3.7969h-19.902v5.5625l2.4375 1.7812c0.25781 0.1875 0.41016 0.48828 0.41016 0.80859v13.898c0 0.31641-0.15234 0.61719-0.41016 0.80469l-2.4414 1.7891v6.3516h88v-6.3516l-2.4414-1.7891c-0.25781-0.1875-0.41016-0.48828-0.41016-0.80469v-13.898c0-0.32031 0.15234-0.62109 0.41016-0.80859zm-15.793 2.2266s4.1719-5.2539 4.1719-5.2539c0.81641-1.0234 2.375 0.21875 1.5664 1.2422l-4.1719 5.2539c-0.19531 0.25-0.48828 0.37891-0.78516 0.37891-0.80469 0.027344-1.3125-1-0.78125-1.6211zm-55.711-5.2539s4.1719 5.2539 4.1719 5.2539c0.80859 1.0273-0.74609 2.2656-1.5664 1.2422 0 0-4.1719-5.2539-4.1719-5.2539-0.80859-1.0273 0.75-2.2617 1.5664-1.2422zm50.84 16.684h-41.797c-1.3281-0.023438-1.3008-1.9805 0-2h41.797c1.3242 0.023438 1.3008 1.9805 0 2zm16.988-15.441-7.543 9.5c-0.19141 0.23828-0.47656 0.37891-0.78125 0.37891h-59.121c-0.30469 0-0.59375-0.14062-0.78125-0.37891l-7.543-9.5c-0.34375-0.43359-0.26953-1.0625 0.16016-1.4062 0.42969-0.34375 1.0625-0.27344 1.4062 0.16016l7.2422 9.1211h58.152l7.2422-9.1211c0.83984-1.0273 2.3516 0.22266 1.5664 1.2422z"/>
  <path d="m23.062 42.25h4.332v3h-4.332z"/>
  <path d="m10.73 42.25h4v3h-4z"/>
  <path d="m79.73 42.25h4v3h-4z"/>
  <path d="m85.73 42.25h4v3h-4z"/>
  <path d="m16.73 42.25h4.332v3h-4.332z"/>
  <path d="m35.73 87.75h4.332v3h-4.332z"/>
  <path d="m48.395 87.75h4.332v3h-4.332z"/>
  <path d="m54.73 87.75h4v3h-4z"/>
  <path d="m16.73 87.75h4.332v3h-4.332z"/>
  <path d="m10.73 87.75h4v3h-4z"/>
  <path d="m29.395 87.75h4.332v3h-4.332z"/>
  <path d="m67.73 87.75h4v3h-4z"/>
  <path d="m23.062 87.75h4.332v3h-4.332z"/>
  <path d="m42.062 87.75h4.332v3h-4.332z"/>
  <path d="m73.73 87.75h4v3h-4z"/>
  <path d="m85.73 87.75h4v3h-4z"/>
  <path d="m69.105 58.547c-0.17578 0.13281-0.38672 0.20312-0.60547 0.20312h-37c-0.21875 0-0.42969-0.070312-0.60547-0.20312l-4.9922-3.7969h-19.902v5.5625l2.4375 1.7812c0.25781 0.1875 0.41016 0.48828 0.41016 0.80859v13.898c0 0.31641-0.15234 0.61719-0.41016 0.80469l-2.4414 1.7891v6.3516h88v-6.3516l-2.4414-1.7891c-0.25781-0.1875-0.41016-0.48828-0.41016-0.80469v-13.898c0-0.32031 0.15234-0.62109 0.41016-0.80859l2.4375-1.7812v-5.5625h-19.902l-4.9922 3.7969zm-49.047 0.51953s4.1719 5.2539 4.1719 5.2539c0.80859 1.0273-0.74609 2.2656-1.5664 1.2422 0 0-4.1719-5.2539-4.1719-5.2539-0.80859-1.0273 0.75-2.2617 1.5664-1.2422zm50.84 16.684h-41.797c-1.3281-0.023438-1.3008-1.9805 0-2h41.797c1.3242 0.023438 1.3008 1.9805 0 2zm16.988-15.441-7.543 9.5c-0.19141 0.23828-0.47656 0.37891-0.78125 0.37891h-59.121c-0.30469 0-0.59375-0.14062-0.78125-0.37891 0 0-7.543-9.5-7.543-9.5-0.81641-1.0508 0.76562-2.2539 1.5664-1.2422l7.2422 9.1211h58.152s7.2422-9.1211 7.2422-9.1211c0.83594-1.0273 2.3555 0.21875 1.5664 1.2422zm-12.117 4.0117s4.1719-5.2539 4.1719-5.2539c0.81641-1.0234 2.375 0.21875 1.5664 1.2422l-4.1719 5.2539c-0.19531 0.25-0.48828 0.37891-0.78516 0.37891-0.80469 0.027344-1.3125-1-0.78125-1.6211z"/>
  <path d="m79.73 87.75h4v3h-4z"/>
  <text style="fill: rgb(255, 255, 255); font-family: Alatsi; font-size: 4.79985px; white-space: pre;" transform="matrix(1, 0, 0, 1.666718, 0.18659, -54.656328)" x="12.167" y="83.016">G.Skill Intel XMP 16GB DDR5 6000 MHz</text>
  <defs>
    <style bx:fonts="Alatsi">@import url(https://fonts.googleapis.com/css2?family=Alatsi%3Aital%2Cwght%400%2C400&amp;display=swap);</style>
  </defs>
  <text style="white-space: pre; fill: rgb(51, 51, 51); font-family: Arial, sans-serif; font-size: 28px;" x="50.605" y="97.198"> </text>
  <text style="fill: rgb(255, 255, 255); font-family: Alatsi; font-size: 4.79985px; white-space: pre;" transform="matrix(1, 0, 0, 1.666718, 0.186586, -100.185023)" x="12.167" y="83.016">G.Skill Intel XMP 16GB DDR5 6000 MHz</text>
</svg>