<?xml version="1.0" encoding="utf-8"?>
<svg xmlns="http://www.w3.org/2000/svg" version="1.1" x="0px" y="0px" viewBox="181.99 -4.688 236.804 332.5" style="enable-background:new 0 0 600 266;">
  <g style="transform-origin: 300px 133px;" transform="matrix(0, -0.538326, 0.615676, 0, -5.321824, 27.68385)">
    <g>
      <g>
        <path d="M484.8,204.9c-38.1,0-69.1-31-69.1-69.1s31-69.1,69.1-69.1s69.1,31,69.1,69.1S522.9,204.9,484.8,204.9z M484.8,78.2     c-31.7,0-57.5,25.8-57.5,57.5s25.8,57.5,57.5,57.5s57.5-25.8,57.5-57.5S516.5,78.2,484.8,78.2z"/>
      </g>
      <g>
        <g>
          <path d="M499.5,129.8c-1.7,0-3.4-0.7-4.5-2.2c-2-2.5-1.6-6.2,0.9-8.2c5.9-4.7,9.7-11.5,10.5-19c0.9-7.5-1.3-15-6-20.9      c-2-2.5-1.6-6.2,0.9-8.2c2.5-2,6.2-1.6,8.2,0.9c13.8,17.3,10.9,42.5-6.3,56.3C502,129.4,500.8,129.8,499.5,129.8z"/>
        </g>
      </g>
      <g>
        <g>
          <path d="M510.8,146.6c-2.9,0-5.9-0.3-8.9-1c-3.1-0.7-5.1-3.8-4.4-6.9c0.7-3.1,3.8-5.1,6.9-4.4c15.3,3.5,30.6-6.1,34-21.4      c0.7-3.1,3.8-5.1,6.9-4.4c3.1,0.7,5.1,3.8,4.4,6.9C545.6,134,529,146.6,510.8,146.6z"/>
        </g>
      </g>
      <g>
        <g>
          <path d="M523.8,177.9c-14.9,0-29.2-8.4-36.1-22.7c-1.4-2.9-0.2-6.4,2.7-7.7c2.9-1.4,6.4-0.2,7.7,2.7c6.8,14.1,23.8,20.1,38,13.3      c2.9-1.4,6.4-0.2,7.7,2.7s0.2,6.4-2.7,7.7C535.6,176.6,529.7,177.9,523.8,177.9z"/>
        </g>
      </g>
      <g>
        <g>
          <path d="M492.6,204.2c-0.8,0-1.7-0.2-2.5-0.6c-9.6-4.6-16.9-12.8-20.4-22.8c-3.5-10.1-2.9-21,1.7-30.6c1.4-2.9,4.9-4.1,7.7-2.7      c2.9,1.4,4.1,4.9,2.7,7.7c-3.3,6.8-3.7,14.6-1.2,21.7s7.7,12.9,14.5,16.2c2.9,1.4,4.1,4.9,2.7,7.7      C496.8,203,494.7,204.2,492.6,204.2z"/>
        </g>
      </g>
      <g>
        <g>
          <path d="M440.6,186.7c-2.6,0-5-1.8-5.7-4.5c-2.4-10.4-0.6-21.2,5.1-30.2c5.7-9.1,14.6-15.4,25-17.7c3.1-0.7,6.2,1.2,6.9,4.4      c0.7,3.1-1.2,6.2-4.4,6.9c-7.4,1.7-13.7,6.2-17.7,12.6c-4,6.4-5.3,14.1-3.6,21.5c0.7,3.1-1.2,6.2-4.4,6.9      C441.5,186.7,441,186.7,440.6,186.7z"/>
        </g>
      </g>
      <g>
        <g>
          <path d="M484.8,122.7c-3.2,0-5.8-2.6-5.8-5.8c0-15.7-12.8-28.4-28.4-28.4c-3.2,0-5.8-2.6-5.8-5.8s2.6-5.8,5.8-5.8      c22.1,0,40,18,40,40C490.6,120.1,488,122.7,484.8,122.7z"/>
        </g>
      </g>
      <g>
        <g>
          <path d="M421.9,135.2c-1.3,0-2.5-0.4-3.6-1.3c-2.5-2-2.9-5.6-0.9-8.2c13.8-17.3,39-20.1,56.3-6.3c2.5,2,2.9,5.6,0.9,8.2      c-2,2.5-5.6,2.9-8.2,0.9c-5.9-4.7-13.4-6.9-20.9-6c-7.5,0.9-14.3,4.6-19,10.5C425.3,134.5,423.6,135.2,421.9,135.2z"/>
        </g>
      </g>
      <g>
        <path d="M484.8,160.4c-13.6,0-24.7-11.1-24.7-24.7c0-13.6,11.1-24.7,24.7-24.7s24.7,11.1,24.7,24.7     C509.4,149.3,498.4,160.4,484.8,160.4z M484.8,122.7c-7.2,0-13.1,5.9-13.1,13.1s5.9,13.1,13.1,13.1s13.1-5.9,13.1-13.1     S492,122.7,484.8,122.7z"/>
      </g>
    </g>
    <g>
      <g>
        <path d="M331,204.9c-8.1,0-16.3-1.5-24.2-4.4c-17.3-6.4-31-19.2-38.7-36c-7.7-16.8-8.3-35.6-1.9-52.9s19.2-31,36-38.7     c16.8-7.7,35.6-8.3,52.9-1.9c17.3,6.4,31,19.2,38.7,36c7.7,16.8,8.3,35.6,1.9,52.9c-6.5,17.3-19.2,31-36,38.7     C350.6,202.8,340.8,204.9,331,204.9z M330.9,78.2c-8,0-16.1,1.7-23.8,5.2c-14,6.4-24.6,17.8-30,32.2c-5.4,14.4-4.8,30,1.6,44l0,0     c9.6,21.1,30.6,33.6,52.4,33.6c8,0,16.1-1.7,23.8-5.2c14-6.4,24.6-17.8,30-32.2c5.4-14.4,4.8-30-1.6-44     C373.7,90.7,352.7,78.2,330.9,78.2z"/>
      </g>
      <g>
        <g>
          <path d="M339.5,124.7c-0.9,0-1.8-0.2-2.6-0.6c-2.9-1.4-4-4.9-2.6-7.8c3.4-6.8,4-14.5,1.7-21.7c-2.4-7.2-7.4-13.1-14.2-16.5      c-2.9-1.4-4-4.9-2.6-7.8c1.4-2.9,4.9-4,7.8-2.6c9.5,4.8,16.6,13.1,19.9,23.3c3.3,10.2,2.5,21-2.3,30.6      C343.7,123.6,341.6,124.7,339.5,124.7z"/>
        </g>
      </g>
      <g>
        <g>
          <path d="M349.5,137.7c-2.7,0-5.1-1.9-5.7-4.6c-0.6-3.1,1.4-6.2,4.5-6.9c7.4-1.5,13.8-5.9,18-12.2c4.2-6.3,5.6-13.9,4.1-21.4      c-0.6-3.1,1.4-6.2,4.5-6.9s6.2,1.4,6.9,4.5c2.2,10.5,0.1,21.2-5.7,30.1c-5.9,8.9-14.9,15.1-25.3,17.2      C350.2,137.7,349.8,137.7,349.5,137.7z"/>
        </g>
      </g>
      <g>
        <g>
          <path d="M367.4,161.5c-9,0-18.1-3-25.6-9.2c-2.5-2-2.8-5.7-0.8-8.2c2-2.5,5.7-2.8,8.2-0.8c12.1,10,30,8.4,40-3.7      c2-2.5,5.7-2.8,8.2-0.8c2.5,2,2.8,5.7,0.8,8.2C390.3,156.6,378.8,161.5,367.4,161.5z"/>
        </g>
      </g>
      <g>
        <g>
          <path d="M364.2,195.3c0,0-0.1,0-0.1,0c-10.7-0.2-20.7-4.6-28.1-12.3c-7.4-7.7-11.4-17.9-11.1-28.5c0.1-3.2,2.7-5.7,5.9-5.7      c3.2,0.1,5.7,2.7,5.7,5.9c-0.2,7.6,2.7,14.8,7.9,20.3c5.3,5.5,12.3,8.6,19.9,8.7c3.2,0.1,5.7,2.7,5.7,5.9      C369.9,192.8,367.3,195.3,364.2,195.3z"/>
        </g>
      </g>
      <g>
        <g>
          <path d="M309.6,201c-1.7,0-3.5-0.8-4.6-2.3c-13.4-17.5-10.1-42.7,7.5-56.1c2.5-1.9,6.2-1.5,8.1,1.1c1.9,2.5,1.5,6.2-1.1,8.1      c-12.5,9.5-14.8,27.4-5.3,39.9c1.9,2.5,1.5,6.2-1.1,8.1C312.1,200.6,310.9,201,309.6,201z"/>
        </g>
      </g>
      <g>
        <g>
          <path d="M323.2,124.4c-2.2,0-4.3-1.3-5.3-3.4c-6.5-14.3-23.4-20.6-37.7-14.1c-2.9,1.3-6.4,0-7.7-2.9c-1.3-2.9,0-6.4,2.9-7.7      c20.1-9.2,43.9-0.3,53.1,19.8c1.3,2.9,0,6.4-2.9,7.7C324.8,124.2,324,124.4,323.2,124.4z"/>
        </g>
      </g>
      <g>
        <g>
          <path d="M271.2,161.9c-0.5,0-0.9-0.1-1.4-0.2c-3.1-0.8-5-3.9-4.2-7c5.3-21.4,27.1-34.5,48.5-29.1c3.1,0.8,5,3.9,4.2,7      c-0.8,3.1-3.9,5-7,4.2c-15.2-3.8-30.7,5.5-34.5,20.7C276.2,160.1,273.8,161.9,271.2,161.9z"/>
        </g>
      </g>
      <g>
        <path d="M331,160.4c-2.9,0-5.8-0.5-8.6-1.6c-6.2-2.3-11.1-6.9-13.8-12.9l0,0c-2.7-6-3-12.7-0.7-18.9c2.3-6.2,6.9-11.1,12.9-13.8     c6-2.7,12.7-3,18.9-0.7c6.2,2.3,11.1,6.9,13.8,12.9c5.6,12.4,0.2,27-12.2,32.7C338,159.7,334.5,160.4,331,160.4z M319.1,141.2     c1.4,3.2,4,5.6,7.3,6.8c3.3,1.2,6.8,1.1,10-0.4c6.5-3,9.4-10.8,6.5-17.3c-1.4-3.2-4-5.6-7.3-6.8c-3.3-1.2-6.8-1.1-10,0.4     C319,126.9,316.1,134.6,319.1,141.2L319.1,141.2z"/>
      </g>
    </g>
    <g>
      <g>
        <path d="M177.2,204.9c-38.1,0-69.1-31-69.1-69.1s31-69.1,69.1-69.1c38.1,0,69.1,31,69.1,69.1S215.4,204.9,177.2,204.9z      M177.2,78.2c-31.7,0-57.5,25.8-57.5,57.5s25.8,57.5,57.5,57.5c31.7,0,57.5-25.8,57.5-57.5S209,78.2,177.2,78.2z"/>
      </g>
      <g>
        <g>
          <path d="M192,129.8c-1.7,0-3.4-0.7-4.5-2.2c-2-2.5-1.6-6.2,0.9-8.2c5.9-4.7,9.7-11.5,10.5-19c0.9-7.5-1.3-15-6-20.9      c-2-2.5-1.6-6.2,0.9-8.2c2.5-2,6.2-1.6,8.2,0.9c13.8,17.3,10.9,42.5-6.3,56.3C194.5,129.4,193.3,129.8,192,129.8z"/>
        </g>
      </g>
      <g>
        <g>
          <path d="M203.3,146.6c-2.9,0-5.9-0.3-8.9-1c-3.1-0.7-5.1-3.8-4.4-6.9c0.7-3.1,3.8-5.1,6.9-4.4c15.3,3.5,30.6-6.1,34.1-21.4      c0.7-3.1,3.8-5.1,6.9-4.4c3.1,0.7,5.1,3.8,4.4,6.9C238,134,221.5,146.6,203.3,146.6z"/>
        </g>
      </g>
      <g>
        <g>
          <path d="M216.3,177.9c-14.9,0-29.2-8.4-36.1-22.7c-1.4-2.9-0.2-6.4,2.7-7.7c2.9-1.4,6.4-0.2,7.7,2.7c6.8,14.1,23.8,20.1,38,13.3      c2.9-1.4,6.4-0.2,7.7,2.7s0.2,6.4-2.7,7.7C228.1,176.6,222.2,177.9,216.3,177.9z"/>
        </g>
      </g>
      <g>
        <g>
          <path d="M185.1,204.2c-0.8,0-1.7-0.2-2.5-0.6c-19.9-9.6-28.3-33.6-18.7-53.4c1.4-2.9,4.9-4.1,7.7-2.7c2.9,1.4,4.1,4.9,2.7,7.7      c-6.8,14.1-0.8,31.2,13.3,38c2.9,1.4,4.1,4.9,2.7,7.7C189.3,203,187.2,204.2,185.1,204.2z"/>
        </g>
      </g>
      <g>
        <g>
          <path d="M133.1,186.7c-2.6,0-5-1.8-5.6-4.5c-2.4-10.4-0.6-21.2,5.1-30.2c5.7-9.1,14.6-15.4,25-17.7c3.1-0.7,6.2,1.2,6.9,4.4      c0.7,3.1-1.2,6.2-4.4,6.9c-7.4,1.7-13.7,6.2-17.7,12.6c-4,6.4-5.3,14.1-3.6,21.5c0.7,3.1-1.2,6.2-4.4,6.9      C134,186.7,133.5,186.7,133.1,186.7z"/>
        </g>
      </g>
      <g>
        <g>
          <path d="M177.2,122.7c-3.2,0-5.8-2.6-5.8-5.8c0-15.7-12.8-28.4-28.4-28.4c-3.2,0-5.8-2.6-5.8-5.8s2.6-5.8,5.8-5.8      c22.1,0,40,18,40,40C183,120.1,180.4,122.7,177.2,122.7z"/>
        </g>
      </g>
      <g>
        <g>
          <path d="M114.4,135.2c-1.3,0-2.5-0.4-3.6-1.3c-2.5-2-2.9-5.6-0.9-8.2c6.7-8.4,16.2-13.6,26.8-14.8c10.6-1.2,21.1,1.8,29.4,8.5      c2.5,2,2.9,5.6,0.9,8.2c-2,2.5-5.6,2.9-8.2,0.9c-12.3-9.8-30.2-7.8-40,4.5C117.8,134.5,116.1,135.2,114.4,135.2z"/>
        </g>
      </g>
      <g>
        <path d="M177.2,160.4c-13.6,0-24.7-11.1-24.7-24.7c0-13.6,11.1-24.7,24.7-24.7c13.6,0,24.7,11.1,24.7,24.7     C201.9,149.3,190.8,160.4,177.2,160.4z M177.2,122.7c-7.2,0-13.1,5.9-13.1,13.1s5.9,13.1,13.1,13.1s13.1-5.9,13.1-13.1     S184.4,122.7,177.2,122.7z"/>
      </g>
    </g>
    <g>
      <path d="M39,252.7c-3.2,0-5.8-2.6-5.8-5.8v-222H21.1c-3.2,0-5.8-2.6-5.8-5.8s2.6-5.8,5.8-5.8H39c3.2,0,5.8,2.6,5.8,5.8v227.8    C44.8,250.1,42.2,252.7,39,252.7z"/>
    </g>
    <g>
      <path d="M39,84.9H22.2c-3.2,0-5.8-2.6-5.8-5.8V46.5c0-3.2,2.6-5.8,5.8-5.8H39c3.2,0,5.8,2.6,5.8,5.8v32.6    C44.8,82.3,42.2,84.9,39,84.9z M28,73.3h5.3v-21H28V73.3z"/>
    </g>
    <g>
      <path d="M38.5,204.2H21.6c-3.2,0-5.8-2.6-5.8-5.8V99.1c0-3.2,2.6-5.8,5.8-5.8h16.9c3.2,0,5.8,2.6,5.8,5.8v99.3    C44.3,201.6,41.7,204.2,38.5,204.2z M27.4,192.6h5.3v-87.7h-5.3V192.6z"/>
    </g>
    <g>
      <path d="M98.3,252.7H80.2c-3.2,0-5.8-2.6-5.8-5.8v-15.4c0-3.2,2.6-5.8,5.8-5.8s5.8,2.6,5.8,5.8v9.6h6.5v-9.6    c0-3.2,2.6-5.8,5.8-5.8s5.8,2.6,5.8,5.8v15.4C104.1,250.1,101.5,252.7,98.3,252.7z"/>
    </g>
    <g>
      <path d="M303.4,252.7h-18.1c-3.2,0-5.8-2.6-5.8-5.8v-15.4c0-3.2,2.6-5.8,5.8-5.8s5.8,2.6,5.8,5.8v9.6h6.5v-9.6    c0-3.2,2.6-5.8,5.8-5.8c3.2,0,5.8,2.6,5.8,5.8v15.4C309.2,250.1,306.6,252.7,303.4,252.7z"/>
    </g>
    <g>
      <path d="M268.2,252.7H114.8c-3.2,0-5.8-2.6-5.8-5.8v-15.4c0-3.2,2.6-5.8,5.8-5.8s5.8,2.6,5.8,5.8v9.6h141.8v-9.6    c0-3.2,2.6-5.8,5.8-5.8s5.8,2.6,5.8,5.8v15.4C274,250.1,271.4,252.7,268.2,252.7z"/>
    </g>
    <g>
      <path d="M54.4,66.6H39c-3.2,0-5.8-2.6-5.8-5.8S35.8,55,39,55h15.4c3.2,0,5.8,2.6,5.8,5.8S57.6,66.6,54.4,66.6z"/>
    </g>
    <g>
      <path d="M54.4,236.2H41.2c-3.2,0-5.8-2.6-5.8-5.8s2.6-5.8,5.8-5.8h13.2c3.2,0,5.8,2.6,5.8,5.8S57.6,236.2,54.4,236.2z"/>
    </g>
    <g>
      <path d="M538.1,236.2h-482c-3.2,0-5.8-2.6-5.8-5.8V41.1c0-3.2,2.6-5.8,5.8-5.8h482c25.7,0,46.6,20.9,46.6,46.6v107.8    C584.7,215.3,563.8,236.2,538.1,236.2z M61.9,224.6h476.2c19.3,0,35-15.7,35-35V81.9c0-19.3-15.7-35-35-35H61.9V224.6z"/>
    </g>
    <g>
      <path d="M121.2,172.7h-4.9c-20.4,0-36.9-16.6-36.9-36.9c0-20.4,16.6-36.9,36.9-36.9h5.8c3.2,0,5.8,2.6,5.8,5.8s-2.6,5.8-5.8,5.8    h-5.8c-14,0-25.3,11.4-25.3,25.3c0,14,11.4,25.3,25.3,25.3h4.9c3.2,0,5.8,2.6,5.8,5.8S124.4,172.7,121.2,172.7z"/>
    </g>
    <g>
      <path d="M275.9,110.4h-43.5c-3.2,0-5.8-2.6-5.8-5.8s2.6-5.8,5.8-5.8h43.5c3.2,0,5.8,2.6,5.8,5.8S279.1,110.4,275.9,110.4z"/>
    </g>
    <g>
      <path d="M429.6,110.4h-43.5c-3.2,0-5.8-2.6-5.8-5.8s2.6-5.8,5.8-5.8h43.5c3.2,0,5.8,2.6,5.8,5.8S432.8,110.4,429.6,110.4z"/>
    </g>
    <g>
      <path d="M275.9,172.7h-43.5c-3.2,0-5.8-2.6-5.8-5.8s2.6-5.8,5.8-5.8h43.5c3.2,0,5.8,2.6,5.8,5.8S279.1,172.7,275.9,172.7z"/>
    </g>
    <g>
      <path d="M429.6,172.7h-43.5c-3.2,0-5.8-2.6-5.8-5.8s2.6-5.8,5.8-5.8h43.5c3.2,0,5.8,2.6,5.8,5.8S432.8,172.7,429.6,172.7z"/>
    </g>
  </g>
</svg>