<svg xmlns="http://www.w3.org/2000/svg" version="1.1" viewBox="-5.0 -10.0 110.0 135.0">
 <path d="m67.887 26.934c0.80859-0.79297 0.82031-2.0938 0.027343-2.9062-9.832-10.016-25.887-10.062-35.801-0.33594-0.80859 0.79688-0.82031 2.0977-0.027343 2.9062 0.79297 0.80859 2.0938 0.82031 2.9062 0.027344 8.3477-8.1914 21.789-8.0742 29.988 0.28125 0.79688 0.8125 2.1016 0.82422 2.9062 0.027344z"/>
 <path d="m61.664 31.945c0.80859-0.79297 0.82031-2.0938 0.027344-2.9062-6.4062-6.5312-16.934-6.6289-23.465-0.21875-0.80859 0.79688-0.82031 2.0977-0.027343 2.9062 0.79688 0.80859 2.0977 0.82031 2.9062 0.027344 4.9102-4.8203 12.832-4.75 17.652 0.16406 0.78906 0.80469 2.0898 0.82812 2.9062 0.027343z"/>
 <path d="m44.336 33.949c-0.80859 0.79688-0.82031 2.0938-0.027344 2.9062 0.79297 0.80859 2.0938 0.82031 2.9062 0.027343 1.4766-1.4531 3.8672-1.4297 5.3164 0.050782 0.78906 0.80469 2.0898 0.82812 2.9062 0.027344 0.80859-0.79297 0.82031-2.0977 0.027344-2.9062-3.0391-3.1016-8.0312-3.1445-11.129-0.10547z"/>
 <path d="m88.383 59.035c-1.6992-0.27344-3.4102-0.53516-5.125-0.78125-0.027343-0.91797-0.21875-1.8633-0.57422-2.7656-0.38281-0.98828-0.94531-1.8477-1.6289-2.6016l3.3555-38.289c0.15234-1.7812-1.0703-3.3711-2.8203-3.6836-1.875-0.34375-3.6719 0.90234-4 2.7656l-6.7266 37.246c-2.3281 1.1367-3.9453 3.1914-4.5625 5.5625-10.891-0.73828-21.891-0.73828-32.961 0.054688-0.60156-2.3711-2.1797-4.3438-4.2734-5.4922l-6.6562-36.848c-0.37109-1.9336-2.1914-3.0273-3.6836-2.8203-1.918 0.17969-3.3008 1.875-3.1367 3.7383l3.2734 37.465c-1.4805 1.5039-2.4258 3.543-2.5078 5.793-1.5625 0.21875-3.125 0.4375-4.6992 0.68359-3.1758 0.51953-5.4922 3.2461-5.4922 6.4922v11.121c0 3.6289 2.9453 6.5742 6.5742 6.5742h1.793v3.1523c0 1.5078 1.2344 2.7383 2.7539 2.7383h5.7539c0.93359 0 1.793-0.46484 2.3164-1.2617l2.9844-4.6289h43.316l3 4.6328c0.50781 0.79297 1.3711 1.2617 2.3008 1.2617h5.7656c1.5078 0 2.7383-1.2344 2.7383-2.7383v-3.1523h1.7812c3.6289 0 6.5898-2.9453 6.5898-6.5742l0.003907-11.152c0-3.2305-2.2891-5.957-5.4531-6.4922zm-8.0938-44.863c0.070313-0.41016 0.51953-0.64453 0.80859-0.5625 0.35547 0.054687 0.61719 0.38281 0.57422 0.75391l-3.1914 36.574c-1.4258-0.71484-3.0547-1.0273-4.6836-0.86328zm-61.973 0.69922c-0.027344-0.41016 0.27344-0.72656 0.64453-0.75391 0.17969-0.082032 0.68359 0.10937 0.75391 0.57422l6.4102 35.41c-1.5078-0.15234-2.957-0.09375-4.6719 0.68359zm72.781 61.809c0 2.125-1.7266 3.8359-3.8477 3.8359h-74.512c-2.1094 0-3.8359-1.7109-3.8359-3.8359v-11.121c0-1.8906 1.3438-3.4922 3.1914-3.7812 12.848-2.082 25.656-3.1211 38.355-3.1211 13.219 0 25.766 1.1367 37.48 3.0938 1.8359 0.30078 3.168 1.8867 3.168 3.7773z"/>
 <path d="m43.301 75.902c0.75781 0 1.3711-0.61328 1.3711-1.3711v-6.5898c0-0.75781-0.61328-1.3711-1.3711-1.3711-0.75781 0-1.3711 0.61328-1.3711 1.3711v6.5898c0 0.75781 0.61328 1.3711 1.3711 1.3711z"/>
 <path d="m36.586 75.902c0.75781 0 1.3711-0.61328 1.3711-1.3711v-6.5898c0-0.75781-0.61328-1.3711-1.3711-1.3711-0.75781 0-1.3711 0.61328-1.3711 1.3711v6.5898c0 0.75781 0.61719 1.3711 1.3711 1.3711z"/>
 <path d="m29.875 75.902c0.75781 0 1.3711-0.61328 1.3711-1.3711v-6.5898c0-0.75781-0.61328-1.3711-1.3711-1.3711s-1.3711 0.61328-1.3711 1.3711v6.5898c0 0.75781 0.61328 1.3711 1.3711 1.3711z"/>
 <path d="m23.16 75.902c0.75781 0 1.3711-0.61328 1.3711-1.3711v-6.5898c0-0.75781-0.61328-1.3711-1.3711-1.3711-0.75781 0-1.3711 0.61328-1.3711 1.3711v6.5898c0 0.75781 0.61328 1.3711 1.3711 1.3711z"/>
 <path d="m16.445 75.902c0.75781 0 1.3711-0.61328 1.3711-1.3711v-6.5898c0-0.75781-0.61328-1.3711-1.3711-1.3711-0.75781 0-1.3711 0.61328-1.3711 1.3711v6.5898c0 0.75781 0.61328 1.3711 1.3711 1.3711z"/>
 <path d="m63.211 71.238c0 4.9727-7.4609 4.9727-7.4609 0 0-4.9766 7.4609-4.9766 7.4609 0"/>
 <path d="m74.855 71.238c0 4.9727-7.4609 4.9727-7.4609 0 0-4.9766 7.4609-4.9766 7.4609 0"/>
 <path d="m86.5 71.238c0 4.9727-7.4609 4.9727-7.4609 0 0-4.9766 7.4609-4.9766 7.4609 0"/>
</svg>