<svg xmlns="http://www.w3.org/2000/svg" xmlns:xlink="http://www.w3.org/1999/xlink" version="1.1" x="0px" y="0px" viewBox="0 0 100 125" style="enable-background:new 0 0 100 100;" xml:space="preserve"><style type="text/css">
	.st0{display:none;}
</style><g><g><rect x="34.6" y="84.24" width="1.59" height="1.59"/><rect x="31.42" y="81.06" width="1.59" height="1.59"/><rect x="31.42" y="84.24" width="1.59" height="1.59"/><rect x="37.78" y="84.24" width="1.59" height="1.59"/><rect x="34.6" y="81.06" width="1.59" height="1.59"/><rect x="33.57" y="71.84" width="16.1" height="1.59"/><path d="M49.57,56.96c0-1.45-1.18-2.64-2.64-2.64c-1.45,0-2.64,1.18-2.64,2.64s1.18,2.64,2.64,2.64    C48.38,59.6,49.57,58.41,49.57,56.96z"/><path d="M39.21,35.38v10.74h10.34V35.38H39.21z M48.95,44.53c0,0.45-0.35,0.8-0.8,0.8H40.6c-0.44,0-0.8-0.35-0.8-0.8v-7.56    c0-0.44,0.36-0.8,0.8-0.8h7.56c0.45,0,0.8,0.36,0.8,0.8V44.53z"/><rect x="37.78" y="81.06" width="1.59" height="1.59"/><rect x="41.4" y="37.77" width="5.97" height="5.97"/><rect x="28.86" y="54.82" width="3.52" height="4.48"/><rect x="33.57" y="64.3" width="16.1" height="1.59"/><rect x="58.23" y="29.35" width="1.59" height="23.86"/><path d="M26.63,18.58c0,0-0.01-0.01-0.02-0.02l-7.24-7.77h-1.91v42.45l2.2,0.06l11.85-13.11V23.83L26.63,18.58z M24.18,44.25    c-0.16,0.15-0.36,0.23-0.56,0.23c-0.21,0-0.41-0.08-0.56-0.23l-3.6-3.6c-0.31-0.31-0.31-0.82,0-1.13c0.31-0.31,0.82-0.31,1.13,0    l3.6,3.6C24.49,43.43,24.49,43.94,24.18,44.25z M26.78,39.49c-0.16,0.15-0.36,0.23-0.56,0.23s-0.41-0.08-0.56-0.23l-6.2-6.2    c-0.31-0.31-0.31-0.82,0-1.13c0.31-0.31,0.82-0.31,1.13,0l6.2,6.2C27.09,38.68,27.09,39.18,26.78,39.49z M29.79,35.15    c-0.16,0.16-0.36,0.23-0.56,0.23c-0.21,0-0.41-0.07-0.56-0.23l-9.22-9.22c-0.31-0.31-0.31-0.81,0-1.12c0.31-0.31,0.82-0.31,1.13,0    l9.22,9.22C30.1,34.34,30.1,34.84,29.79,35.15z M29.79,27.79c-0.16,0.16-0.36,0.23-0.56,0.23c-0.21,0-0.41-0.07-0.56-0.23    l-9.22-9.22c-0.31-0.31-0.31-0.81,0-1.12c0.31-0.31,0.82-0.31,1.13,0l9.22,9.22C30.1,26.98,30.1,27.48,29.79,27.79z"/><path d="M63.98,18.81l0.38,0.38c0.16,0.17,0.25,0.4,0.23,0.63c-0.02,0.23-0.14,0.45-0.33,0.58l-9.55,6.86    c-0.14,0.1-0.29,0.15-0.46,0.15H35.11c-0.45,0-0.8-0.36-0.8-0.8v-7.8h-5.3l3.88,4.17c0.14,0.14,0.21,0.33,0.21,0.54v16.97    c0,0.2-0.08,0.39-0.21,0.53L20.81,54.4v9.16h5.41c0.44,0,0.8,0.36,0.8,0.8s-0.36,0.8-0.8,0.8h-5.41v2.05h5.41    c0.44,0,0.8,0.36,0.8,0.8c0,0.45-0.36,0.8-0.8,0.8h-5.41v2.06h5.41c0.44,0,0.8,0.35,0.8,0.8c0,0.44-0.36,0.8-0.8,0.8h-5.41v2.05    h5.41c0.44,0,0.8,0.36,0.8,0.8s-0.36,0.8-0.8,0.8h-5.41v2.05h5.41c0.44,0,0.8,0.36,0.8,0.8c0,0.45-0.36,0.8-0.8,0.8h-5.41v9.48    h61.73v-70.4H63.98z M24.62,87.62c-1.1,0-1.99-0.89-1.99-1.99s0.89-1.99,1.99-1.99c1.1,0,1.99,0.89,1.99,1.99    S25.72,87.62,24.62,87.62z M73.15,28.55c0-0.44,0.36-0.8,0.8-0.8h3.18c0.44,0,0.8,0.36,0.8,0.8v25.46c0,0.44-0.36,0.8-0.8,0.8    h-3.18c-0.44,0-0.8-0.36-0.8-0.8V28.55z M67.64,28.55c0-0.44,0.36-0.8,0.8-0.8h3.18c0.45,0,0.8,0.36,0.8,0.8v25.46    c0,0.44-0.35,0.8-0.8,0.8h-3.18c-0.44,0-0.8-0.36-0.8-0.8V28.55z M62.15,28.55c0-0.44,0.35-0.8,0.8-0.8h3.18    c0.44,0,0.8,0.36,0.8,0.8v25.46c0,0.44-0.36,0.8-0.8,0.8h-3.18c-0.45,0-0.8-0.36-0.8-0.8V28.55z M56.64,28.55    c0-0.44,0.36-0.8,0.8-0.8h3.18c0.44,0,0.8,0.36,0.8,0.8v25.46c0,0.44-0.36,0.8-0.8,0.8h-3.18c-0.44,0-0.8-0.36-0.8-0.8V28.55z     M34.97,36.19h2.65v-1.61c0-0.44,0.36-0.8,0.8-0.8h1.39v-2.63c0-0.44,0.36-0.8,0.8-0.8c0.45,0,0.8,0.36,0.8,0.8v2.63h1.99v-2.63    c0-0.44,0.36-0.8,0.8-0.8c0.45,0,0.8,0.36,0.8,0.8v2.63h2.37v-2.65c0-0.44,0.36-0.8,0.8-0.8s0.8,0.36,0.8,0.8v2.65h1.41    c0.45,0,0.8,0.36,0.8,0.8v1.59h2.64c0.44,0,0.8,0.36,0.8,0.8c0,0.45-0.36,0.8-0.8,0.8h-2.64v1.99h2.64c0.44,0,0.8,0.36,0.8,0.8    c0,0.45-0.36,0.8-0.8,0.8h-2.64v2.37h2.66c0.44,0,0.8,0.36,0.8,0.8c0,0.45-0.36,0.8-0.8,0.8h-2.66v1.61c0,0.45-0.35,0.8-0.8,0.8    h-1.39v2.64c0,0.44-0.35,0.8-0.8,0.8c-0.44,0-0.8-0.36-0.8-0.8v-2.64h-1.99v2.64c0,0.44-0.35,0.8-0.8,0.8    c-0.44,0-0.8-0.36-0.8-0.8v-2.64h-2.37v2.66c0,0.44-0.35,0.8-0.8,0.8c-0.44,0-0.8-0.36-0.8-0.8v-2.66h-1.41    c-0.44,0-0.8-0.35-0.8-0.8v-1.59h-2.63c-0.44,0-0.8-0.35-0.8-0.8c0-0.44,0.36-0.8,0.8-0.8h2.63v-1.99h-2.63    c-0.44,0-0.8-0.35-0.8-0.8c0-0.44,0.36-0.8,0.8-0.8h2.63v-2.37h-2.65c-0.44,0-0.8-0.35-0.8-0.8    C34.17,36.55,34.53,36.19,34.97,36.19z M50.47,67.48H32.78c-0.44,0-0.8-0.36-0.8-0.8v-3.18c0-0.45,0.36-0.8,0.8-0.8h17.69    c0.44,0,0.8,0.35,0.8,0.8v3.18C51.26,67.13,50.91,67.48,50.47,67.48z M51.26,71.05v3.18c0,0.44-0.36,0.8-0.8,0.8H32.78    c-0.44,0-0.8-0.36-0.8-0.8v-3.18c0-0.45,0.36-0.8,0.8-0.8h17.69C50.91,70.25,51.26,70.6,51.26,71.05z M42.71,56.96    c0-2.33,1.89-4.22,4.22-4.22c2.33,0,4.22,1.89,4.22,4.22c0,2.33-1.89,4.22-4.22,4.22C44.6,61.18,42.71,59.29,42.71,56.96z     M27.27,60.09v-0.57H26.2c-0.44,0-0.8-0.36-0.8-0.8c0-0.45,0.36-0.8,0.8-0.8h1.07v-1.59H26.2c-0.44,0-0.8-0.36-0.8-0.8    c0-0.45,0.36-0.8,0.8-0.8h1.07v-0.72c0-0.45,0.36-0.8,0.8-0.8h5.11c0.44,0,0.8,0.35,0.8,0.8v0.72h1.07c0.44,0,0.8,0.35,0.8,0.8    c0,0.44-0.36,0.8-0.8,0.8h-1.07v1.59h1.07c0.44,0,0.8,0.35,0.8,0.8c0,0.44-0.36,0.8-0.8,0.8h-1.07v0.57c0,0.45-0.36,0.8-0.8,0.8    h-5.11C27.63,60.88,27.27,60.53,27.27,60.09z M40.96,86.62c0,0.44-0.36,0.8-0.8,0.8h-9.55c-0.44,0-0.8-0.36-0.8-0.8v-6.36    c0-0.44,0.36-0.8,0.8-0.8h9.55c0.44,0,0.8,0.36,0.8,0.8V86.62z M71.83,77.9l-4.77,7.56c-0.15,0.23-0.41,0.37-0.68,0.37h-21.8    c-0.28,0-0.53-0.14-0.68-0.38c-0.14-0.24-0.15-0.54-0.02-0.79l3.98-7.56c0.14-0.25,0.41-0.42,0.7-0.42h22.6    c0.29,0,0.56,0.16,0.7,0.41C71.99,77.35,71.98,77.66,71.83,77.9z M76.04,75.23H63.07c-0.1,0-0.21-0.02-0.3-0.06    c-0.1-0.04-0.19-0.1-0.26-0.17l-4.4-4.41c-0.08-0.07-0.14-0.17-0.18-0.26c-0.04-0.09-0.06-0.18-0.06-0.29c0,0,0-0.01,0-0.02V57.06    c0-0.44,0.36-0.8,0.8-0.8h12.96c0.1,0,0.21,0.02,0.3,0.06c0.1,0.04,0.19,0.1,0.26,0.17l4.42,4.41c0.07,0.07,0.13,0.17,0.17,0.26    c0.04,0.1,0.06,0.2,0.06,0.3v12.96C76.83,74.87,76.47,75.23,76.04,75.23z M78.72,87.62c-1.1,0-1.99-0.89-1.99-1.99    s0.89-1.99,1.99-1.99s1.99,0.89,1.99,1.99S79.82,87.62,78.72,87.62z M78.72,24.38c-1.1,0-1.99-0.89-1.99-1.99s0.89-1.99,1.99-1.99    s1.99,0.89,1.99,1.99S79.82,24.38,78.72,24.38z"/><rect x="63.74" y="29.35" width="1.59" height="23.86"/><path d="M55.45,24.77H41.62c-0.44,0-0.8-0.36-0.8-0.8s0.36-0.8,0.8-0.8h16.04l4.91-3.53l-1.08-1.08c0,0,0,0-0.01-0.01l-2.8-2.8    H35.9V18c0,0,0,0.01,0,0.01c0,0,0,0.01,0,0.01v1.25h16.47c0.44,0,0.8,0.36,0.8,0.8s-0.36,0.8-0.8,0.8H35.9v4.95H54L55.45,24.77z"/><rect x="69.24" y="29.35" width="1.59" height="23.86"/><path d="M49.04,78.27l-3.14,5.97h20.05l3.77-5.97H49.04z M49.4,83.64c-0.66,0-1.19-0.53-1.19-1.19c0-0.66,0.53-1.19,1.19-1.19    c0.65,0,1.19,0.53,1.19,1.19C50.6,83.11,50.06,83.64,49.4,83.64z M66.16,81.26c-0.66,0-1.19-0.53-1.19-1.19    c0-0.66,0.53-1.19,1.19-1.19c0.66,0,1.19,0.53,1.19,1.19C67.35,80.72,66.82,81.26,66.16,81.26z"/><rect x="74.74" y="29.35" width="1.59" height="23.86"/><path d="M67.78,57.85l4.44,4.44c0.31,0.31,0.31,0.81,0,1.12c-0.16,0.16-0.36,0.23-0.56,0.23c-0.2,0-0.41-0.08-0.56-0.23    l-5.57-5.57h-6.07v11.83l3.94,3.95h4.23l-4.44-4.44c-0.31-0.31-0.31-0.81,0-1.12c0.31-0.31,0.81-0.31,1.12,0l5.57,5.57h5.36V61.8    l-3.95-3.95H67.78z"/></g></g></svg>