<svg xmlns="http://www.w3.org/2000/svg" version="1.1" viewBox="-5.0 -10.0 110.0 135.0">
 <path d="m95.59 16.129c0.25781-0.1875 0.41016-0.48828 0.41016-0.80859v-7.0703c0-0.55078-0.44922-1-1-1h-21.238c-0.21875 0-0.42969 0.070312-0.60547 0.20312l-4.9922 3.7969h-36.328l-4.9922-3.7969c-0.17578-0.13281-0.38672-0.20312-0.60547-0.20312h-21.238c-0.55078 0-1 0.44922-1 1v7.0703c0 0.32031 0.15234 0.62109 0.41016 0.80859l2.4375 1.7812v12.887l-2.4414 1.7891c-0.25781 0.1875-0.41016 0.48828-0.41016 0.80469v7.8594c0 0.55078 0.44922 1 1 1h3.7305v4c0 0.55078 0.44922 1 1 1h50c0.55078 0 1-0.44922 1-1v-4h5v4c0 0.55078 0.44922 1 1 1h24c0.55078 0 1-0.44922 1-1v-4h3.2695c0.55078 0 1-0.44922 1-1v-7.8594c0-0.31641-0.15234-0.61719-0.41016-0.80469l-2.4414-1.7891v-12.887l2.4375-1.7812zm-84.859 26.121h4v3h-4zm10.332 0v3h-4.332v-3zm6.332 0v3h-4.332v-3zm6.3359 0v3h-4.332v-3zm6.332 0v3h-4.332v-3zm6.332 0v3h-4.3359v-3zm6.3359 0v3h-4.332v-3zm6 3h-4v-3h4zm9-3h4v3h-4zm10 0v3h-4v-3zm6 0v3h-4v-3zm6 3h-4v-3h4zm1.8281-13.145 2.4414 1.7891v6.3516l-88 0.003906v-6.3516l2.4414-1.7891c0.25781-0.1875 0.41016-0.48828 0.41016-0.80469v-13.898c0-0.32031-0.15234-0.62109-0.41016-0.80859l-2.4375-1.7812v-5.5625h19.902l4.9922 3.7969c0.17578 0.13281 0.38672 0.20312 0.60547 0.20312h37c0.21875 0 0.42969-0.070312 0.60547-0.20312l4.9922-3.7969h19.902v5.5625l-2.4375 1.7812c-0.25781 0.1875-0.41016 0.48828-0.41016 0.80859v13.898c0 0.31641 0.15234 0.61719 0.41016 0.80469z"/>
 <path d="m86.32 13.566-7.2422 9.1211h-58.156l-7.2422-9.1211c-0.34375-0.43359-0.97266-0.50391-1.4062-0.16016-0.43359 0.34375-0.50391 0.97266-0.16016 1.4062l7.543 9.5c0.19141 0.23828 0.47656 0.37891 0.78125 0.37891h59.117c0.30469 0 0.59375-0.14062 0.78125-0.37891l7.543-9.5c0.78516-1.0234-0.73047-2.2695-1.5664-1.2422z"/>
 <path d="m76.555 20.441c0.29297 0 0.58594-0.12891 0.78516-0.37891l4.1719-5.2539c0.80859-1.0234-0.74609-2.2656-1.5664-1.2422 0 0-4.1719 5.2539-4.1719 5.2539-0.52734 0.62109-0.023438 1.6484 0.78125 1.6211z"/>
 <path d="m22.664 20.062c0.82031 1.0195 2.375-0.21875 1.5664-1.2422 0 0-4.1719-5.2539-4.1719-5.2539-0.81641-1.0195-2.375 0.21484-1.5664 1.2422 0 0 4.1719 5.2539 4.1719 5.2539z"/>
 <path d="m70.898 28.25h-41.797c-1.3008 0.019531-1.3281 1.9766 0 2h41.797c1.3008-0.019531 1.3281-1.9766 0-2z"/>
 <path d="m95 52.75h-21.238c-0.21875 0-0.42969 0.070312-0.60547 0.20312l-4.9922 3.7969h-36.328l-4.9922-3.7969c-0.17578-0.13281-0.38672-0.20312-0.60547-0.20312h-21.238c-0.55078 0-1 0.44922-1 1v7.0703c0 0.32031 0.15234 0.62109 0.41016 0.80859l2.4375 1.7812v12.887l-2.4414 1.7891c-0.25781 0.1875-0.41016 0.48828-0.41016 0.80469v7.8594c0 0.55078 0.44922 1 1 1h3.7305v4c0 0.55078 0.44922 1 1 1h50c0.55078 0 1-0.44922 1-1v-4h5v4c0 0.55078 0.44922 1 1 1h24c0.55078 0 1-0.44922 1-1v-4h3.2695c0.55078 0 1-0.44922 1-1v-7.8594c0-0.31641-0.15234-0.61719-0.41016-0.80469l-2.4414-1.7891v-12.887l2.4375-1.7812c0.25781-0.1875 0.41016-0.48828 0.41016-0.80859v-7.0703c0-0.55078-0.44922-1-1-1zm-84.27 35h4v3h-4zm10.332 0v3h-4.332v-3zm6.332 0v3h-4.332v-3zm6.3359 0v3h-4.332v-3zm6.332 0v3h-4.332v-3zm6.332 0v3h-4.3359v-3zm6.3359 0v3h-4.332v-3zm6 3h-4v-3h4zm9-3h4v3h-4zm10 0v3h-4v-3zm6 0v3h-4v-3zm6 3h-4v-3h4zm4.2695-30.438-2.4375 1.7812c-0.25781 0.1875-0.41016 0.48828-0.41016 0.80859v13.898c0 0.31641 0.15234 0.61719 0.41016 0.80469l2.4414 1.7891v6.3516l-88.004 0.003906v-6.3516l2.4414-1.7891c0.25781-0.1875 0.41016-0.48828 0.41016-0.80469v-13.898c0-0.32031-0.15234-0.62109-0.41016-0.80859l-2.4375-1.7812v-5.5625h19.902l4.9922 3.7969c0.17578 0.13281 0.38672 0.20312 0.60547 0.20312h37c0.21875 0 0.42969-0.070312 0.60547-0.20312l4.9922-3.7969h19.902v5.5625z"/>
 <path d="m20.922 68.188-7.2422-9.1211c-0.80078-1.0117-2.3828 0.19141-1.5664 1.2422 0 0 7.543 9.5 7.543 9.5 0.19141 0.23828 0.47656 0.37891 0.78125 0.37891h59.117c0.30469 0 0.59375-0.14062 0.78125-0.37891l7.543-9.5c0.78906-1.0234-0.73047-2.2695-1.5664-1.2422l-7.2422 9.1211z"/>
 <path d="m76.555 65.941c0.29297 0 0.58594-0.12891 0.78516-0.37891l4.1719-5.2539c0.80859-1.0234-0.74609-2.2656-1.5664-1.2422 0 0-4.1719 5.2539-4.1719 5.2539-0.52734 0.62109-0.023438 1.6484 0.78125 1.6211z"/>
 <path d="m22.664 65.562c0.82031 1.0195 2.375-0.21875 1.5664-1.2422 0 0-4.1719-5.2539-4.1719-5.2539-0.81641-1.0195-2.375 0.21484-1.5664 1.2422 0 0 4.1719 5.2539 4.1719 5.2539z"/>
 <path d="m70.898 73.75h-41.797c-1.3008 0.019531-1.3281 1.9766 0 2h41.797c1.3008-0.019531 1.3281-1.9766 0-2z"/>
</svg>