<?xml version="1.0" encoding="utf-8"?>
<svg xmlns="http://www.w3.org/2000/svg" version="1.1" viewBox="-5 -10 105 110">
  <path d="M 65.591 34.88 C 65.849 34.693 66.001 34.392 66.001 34.071 L 66.001 27.001 C 66.001 26.45 65.552 26.001 65.001 26.001 L 43.763 26.001 C 43.544 26.001 43.333 26.071 43.158 26.204 L 38.165 30.001 L 1.837 30.001 L -3.155 26.204 C -3.33 26.071 -3.541 26.001 -3.76 26.001 L -24.998 26.001 C -25.549 26.001 -25.998 26.45 -25.998 27.001 L -25.998 34.071 C -25.998 34.392 -25.846 34.693 -25.588 34.88 L -23.151 36.661 L -23.151 49.548 L -25.592 51.337 C -25.85 51.525 -26.002 51.826 -26.002 52.142 L -26.002 60.001 C -26.002 60.552 -25.553 61.001 -25.002 61.001 L -21.272 61.001 L -21.272 65.001 C -21.272 65.552 -20.822 66.001 -20.272 66.001 L 29.728 66.001 C 30.279 66.001 30.728 65.552 30.728 65.001 L 30.728 61.001 L 35.728 61.001 L 35.728 65.001 C 35.728 65.552 36.178 66.001 36.728 66.001 L 60.728 66.001 C 61.279 66.001 61.728 65.552 61.728 65.001 L 61.728 61.001 L 64.998 61.001 C 65.549 61.001 65.998 60.552 65.998 60.001 L 65.998 52.142 C 65.998 51.826 65.846 51.525 65.588 51.337 L 63.146 49.548 L 63.146 36.661 L 65.584 34.88 L 65.591 34.88 Z M -19.268 61.001 L -15.268 61.001 L -15.268 64.001 L -19.268 64.001 L -19.268 61.001 Z M -8.936 61.001 L -8.936 64.001 L -13.268 64.001 L -13.268 61.001 L -8.936 61.001 Z M -2.604 61.001 L -2.604 64.001 L -6.936 64.001 L -6.936 61.001 L -2.604 61.001 Z M 3.732 61.001 L 3.732 64.001 L -0.6 64.001 L -0.6 61.001 L 3.732 61.001 Z M 10.064 61.001 L 10.064 64.001 L 5.732 64.001 L 5.732 61.001 L 10.064 61.001 Z M 16.396 61.001 L 16.396 64.001 L 12.06 64.001 L 12.06 61.001 L 16.396 61.001 Z M 22.732 61.001 L 22.732 64.001 L 18.4 64.001 L 18.4 61.001 L 22.732 61.001 Z M 28.732 64.001 L 24.732 64.001 L 24.732 61.001 L 28.732 61.001 L 28.732 64.001 Z M 37.732 61.001 L 41.732 61.001 L 41.732 64.001 L 37.732 64.001 L 37.732 61.001 Z M 47.732 61.001 L 47.732 64.001 L 43.732 64.001 L 43.732 61.001 L 47.732 61.001 Z M 53.732 61.001 L 53.732 64.001 L 49.732 64.001 L 49.732 61.001 L 53.732 61.001 Z M 59.732 64.001 L 55.732 64.001 L 55.732 61.001 L 59.732 61.001 L 59.732 64.001 Z M 61.56 50.856 L 64.001 52.645 L 64.001 58.997 L -23.999 59.001 L -23.999 52.649 L -21.557 50.86 C -21.299 50.672 -21.147 50.372 -21.147 50.055 L -21.147 36.157 C -21.147 35.837 -21.299 35.536 -21.557 35.349 L -23.995 33.567 L -23.995 28.005 L -4.093 28.005 L 0.899 31.802 C 1.075 31.935 1.286 32.005 1.505 32.005 L 38.505 32.005 C 38.724 32.005 38.935 31.935 39.11 31.802 L 44.103 28.005 L 64.005 28.005 L 64.005 33.567 L 61.567 35.349 C 61.309 35.536 61.157 35.837 61.157 36.157 L 61.157 50.055 C 61.157 50.372 61.309 50.672 61.567 50.86 L 61.56 50.856 Z" style="transform-box: fill-box; transform-origin: 50% 50%;" transform="matrix(0, -1, 1, 0, -0.000005, 0.000002)"/>
  <path d="M 51.545 41.267 L 44.303 50.388 L -13.853 50.388 L -21.095 41.267 C -21.439 40.833 -22.068 40.763 -22.502 41.107 C -22.935 41.451 -23.006 42.08 -22.662 42.513 L -15.119 52.013 C -14.927 52.251 -14.642 52.392 -14.338 52.392 L 44.779 52.392 C 45.084 52.392 45.373 52.251 45.561 52.013 L 53.104 42.513 C 53.889 41.49 52.373 40.244 51.537 41.271 L 51.545 41.267 Z" style="transform-box: fill-box; transform-origin: 50% 50%;" transform="matrix(0, -1, 1, 0, 0.000005, -0.000001)"/>
  <path d="M 11.302 21.279 C 11.595 21.279 11.888 21.15 12.087 20.9 L 16.259 15.646 C 17.068 14.623 15.513 13.381 14.693 14.404 C 14.693 14.404 10.521 19.658 10.521 19.658 C 9.993 20.279 10.497 21.306 11.302 21.279 Z" style="transform-box: fill-box; transform-origin: 50% 50%;" transform="matrix(0, 1, -1, 0, -0.000002, -0.000003)"/>
  <path d="M 70.491 79.458 C 71.311 80.477 72.866 79.239 72.057 78.216 C 72.057 78.216 67.886 72.962 67.886 72.962 C 67.069 71.942 65.511 73.177 66.319 74.204 C 66.319 74.204 70.491 79.458 70.491 79.458 Z" style="transform-box: fill-box; transform-origin: 50% 50%;" transform="matrix(0, 1, -1, 0, 0.000004, 0.000004)"/>
  <path d="M 46.168 46.605 L 4.371 46.605 C 3.07 46.625 3.043 48.582 4.371 48.605 L 46.168 48.605 C 47.469 48.585 47.496 46.628 46.168 46.605 Z" style="transform-box: fill-box; transform-origin: 50% 50%;" transform="matrix(0, -1, 1, 0, 0.000001, 0.000003)"/>
  <path d="M 121.466 26 L 100.228 26 C 100.009 26 99.798 26.07 99.623 26.203 L 94.63 30 L 58.302 30 L 53.31 26.203 C 53.134 26.07 52.923 26 52.705 26 L 31.467 26 C 30.916 26 30.467 26.449 30.467 27 L 30.467 34.07 C 30.467 34.391 30.619 34.691 30.877 34.879 L 33.314 36.66 L 33.314 49.547 L 30.873 51.336 C 30.615 51.524 30.463 51.824 30.463 52.141 L 30.463 60 C 30.463 60.551 30.912 61 31.463 61 L 35.193 61 L 35.193 65 C 35.193 65.551 35.642 66 36.193 66 L 86.193 66 C 86.744 66 87.193 65.551 87.193 65 L 87.193 61 L 92.193 61 L 92.193 65 C 92.193 65.551 92.642 66 93.193 66 L 117.193 66 C 117.744 66 118.193 65.551 118.193 65 L 118.193 61 L 121.463 61 C 122.014 61 122.463 60.551 122.463 60 L 122.463 52.141 C 122.463 51.824 122.31 51.524 122.053 51.336 L 119.611 49.547 L 119.611 36.66 L 122.049 34.879 C 122.307 34.691 122.459 34.391 122.459 34.07 L 122.459 27 C 122.459 26.449 122.01 26 121.459 26 L 121.466 26 Z M 37.196 61 L 41.196 61 L 41.196 64 L 37.196 64 L 37.196 61 Z M 47.528 61 L 47.528 64 L 43.196 64 L 43.196 61 L 47.528 61 Z M 53.86 61 L 53.86 64 L 49.528 64 L 49.528 61 L 53.86 61 Z M 60.196 61 L 60.196 64 L 55.864 64 L 55.864 61 L 60.196 61 Z M 66.528 61 L 66.528 64 L 62.196 64 L 62.196 61 L 66.528 61 Z M 72.86 61 L 72.86 64 L 68.524 64 L 68.524 61 L 72.86 61 Z M 79.196 61 L 79.196 64 L 74.864 64 L 74.864 61 L 79.196 61 Z M 85.196 64 L 81.196 64 L 81.196 61 L 85.196 61 L 85.196 64 Z M 94.196 61 L 98.196 61 L 98.196 64 L 94.196 64 L 94.196 61 Z M 104.196 61 L 104.196 64 L 100.196 64 L 100.196 61 L 104.196 61 Z M 110.196 61 L 110.196 64 L 106.196 64 L 106.196 61 L 110.196 61 Z M 116.196 64 L 112.196 64 L 112.196 61 L 116.196 61 L 116.196 64 Z M 120.465 33.562 L 118.028 35.343 C 117.77 35.531 117.618 35.831 117.618 36.152 L 117.618 50.05 C 117.618 50.366 117.77 50.667 118.028 50.854 L 120.469 52.644 L 120.469 58.995 L 32.465 58.999 L 32.465 52.647 L 34.907 50.858 C 35.164 50.671 35.317 50.37 35.317 50.054 L 35.317 36.156 C 35.317 35.835 35.164 35.535 34.907 35.347 L 32.469 33.566 L 32.469 28.003 L 52.371 28.003 L 57.363 31.8 C 57.539 31.933 57.75 32.003 57.969 32.003 L 94.969 32.003 C 95.188 32.003 95.398 31.933 95.574 31.8 L 100.566 28.003 L 120.468 28.003 L 120.468 33.566 L 120.465 33.562 Z" style="transform-box: fill-box; transform-origin: 50% 50%;" transform="matrix(0, -1, 1, 0, 0.000012, 0.000002)"/>
  <path d="M 43.011 50.388 L 35.769 41.267 C 34.968 40.255 33.386 41.458 34.202 42.509 C 34.202 42.509 41.745 52.009 41.745 52.009 C 41.937 52.247 42.222 52.388 42.527 52.388 L 101.644 52.388 C 101.948 52.388 102.237 52.247 102.425 52.009 L 109.968 42.509 C 110.757 41.486 109.237 40.24 108.401 41.267 L 101.159 50.388 L 43.011 50.388 Z" style="transform-box: fill-box; transform-origin: 50% 50%;" transform="matrix(0, -1, 1, 0, 0.000002, 0)"/>
  <path d="M 67.338 20.586 C 67.631 20.586 67.923 20.457 68.123 20.207 L 72.295 14.953 C 73.103 13.93 71.549 12.687 70.728 13.711 C 70.728 13.711 66.556 18.965 66.556 18.965 C 66.029 19.586 66.533 20.613 67.338 20.586 Z" style="transform-box: fill-box; transform-origin: 50% 50%;" transform="matrix(0, 1, -1, 0, 0.000006, -0.000002)"/>
  <path d="M 13.959 79.343 C 14.779 80.362 16.334 79.124 15.526 78.1 C 15.526 78.1 11.354 72.846 11.354 72.846 C 10.537 71.827 8.979 73.061 9.787 74.089 C 9.787 74.089 13.959 79.343 13.959 79.343 Z" style="transform-box: fill-box; transform-origin: 50% 50%;" transform="matrix(0, 1, -1, 0, 0.000004, 0.000002)"/>
  <path d="M 102.365 46.014 L 60.568 46.014 C 59.267 46.033 59.24 47.99 60.568 48.014 L 102.365 48.014 C 103.665 47.994 103.693 46.037 102.365 46.014 Z" style="transform-box: fill-box; transform-origin: 50% 50%;" transform="matrix(0, -1, 1, 0, -0.000001, 0.000002)"/>
</svg>